<svg xmlns="http://www.w3.org/2000/svg" width="30.15" height="29.608" viewBox="0 0 30.15 29.608">
  <g id="Group_457" data-name="Group 457" transform="translate(542.053 112.52)">
    <path id="Path_1782" data-name="Path 1782" d="M-539.354-49.255c0,.448.013.817-.008,1.184a.464.464,0,0,1-.177.286c-.331.264-.677.512-1.053.792.307.231.587.445.87.655l11.67,8.648a1.644,1.644,0,0,0,2.111.032q6.2-4.59,12.4-9.189c.052-.039.1-.083.18-.148-.365-.273-.716-.527-1.056-.8a.424.424,0,0,1-.169-.257c-.019-.377-.008-.755-.008-1.185.123.081.205.129.282.186.659.486,1.309.982,1.977,1.455a.93.93,0,0,1,.434.842q-.012,7.938,0,15.877a2.856,2.856,0,0,1-.052.5,2.679,2.679,0,0,1-2.529,2.209c-.123.005-.247,0-.37,0h-24.252a2.711,2.711,0,0,1-2.938-2.927q0-7.821-.007-15.641a.928.928,0,0,1,.422-.847C-540.883-48.106-540.154-48.663-539.354-49.255Z" transform="translate(0 -54.751)"/>
    <path id="Path_1783" data-name="Path 1783" d="M-502.734-88.508h9.485a1.642,1.642,0,0,1,1.822,1.835c0,1.928,0,3.857.005,5.785a.546.546,0,0,1-.249.5q-5.286,3.906-10.563,7.824c-.411.3-.575.305-.988,0q-5.294-3.924-10.59-7.845a.484.484,0,0,1-.226-.441c.008-1.984,0-3.969.006-5.953a1.614,1.614,0,0,1,1.714-1.7Q-507.527-88.511-502.734-88.508Zm-.005,1.724a1.266,1.266,0,0,0-1.165.737c-.274.539-.551,1.076-.8,1.628a.554.554,0,0,1-.506.353c-.577.072-1.152.167-1.728.249a1.263,1.263,0,0,0-1.106.9,1.262,1.262,0,0,0,.38,1.375c.441.431.89.854,1.315,1.3a.548.548,0,0,1,.123.4q-.12.9-.292,1.789a1.275,1.275,0,0,0,.5,1.368,1.283,1.283,0,0,0,1.456.065c.535-.281,1.064-.574,1.609-.834a.593.593,0,0,1,.454,0c.584.282,1.148.606,1.731.892a1.211,1.211,0,0,0,1.332-.123,1.246,1.246,0,0,0,.509-1.271c-.1-.63-.221-1.257-.308-1.889a.545.545,0,0,1,.127-.4c.442-.461.912-.895,1.361-1.349a1.233,1.233,0,0,0,.331-1.327,1.234,1.234,0,0,0-1.043-.884c-.608-.1-1.217-.187-1.828-.266a.507.507,0,0,1-.454-.322c-.249-.55-.524-1.089-.8-1.628A1.3,1.3,0,0,0-502.739-86.784Z" transform="translate(-24.244 -20.781)"/>
    <path id="Path_1784" data-name="Path 1784" d="M-450.284-110.378H-457.8c.108-.092.176-.157.251-.212.62-.46,1.238-.923,1.863-1.376a2.657,2.657,0,0,1,3.22-.021C-451.76-111.479-451.064-110.953-450.284-110.378Z" transform="translate(-72.912)"/>
    <path id="Path_1785" data-name="Path 1785" d="M-464.625-75.693a1.3,1.3,0,0,1,1.2.762c.272.539.547,1.078.8,1.628a.506.506,0,0,0,.454.322c.61.08,1.22.171,1.828.266a1.234,1.234,0,0,1,1.043.884,1.233,1.233,0,0,1-.331,1.327c-.449.454-.919.888-1.361,1.349a.545.545,0,0,0-.127.4c.087.632.206,1.259.308,1.889a1.246,1.246,0,0,1-.509,1.271,1.211,1.211,0,0,1-1.332.123c-.583-.286-1.146-.61-1.731-.892a.593.593,0,0,0-.454,0c-.545.26-1.074.553-1.609.834A1.283,1.283,0,0,1-467.9-65.6a1.275,1.275,0,0,1-.5-1.368q.173-.89.292-1.789a.548.548,0,0,0-.123-.4c-.426-.445-.875-.869-1.316-1.3a1.262,1.262,0,0,1-.38-1.375,1.263,1.263,0,0,1,1.106-.9c.576-.082,1.151-.177,1.729-.249a.554.554,0,0,0,.506-.353c.246-.552.523-1.089.8-1.628A1.266,1.266,0,0,1-464.625-75.693Zm-2.735,9.007c-.012.242.153.332.429.19.637-.326,1.276-.652,1.9-1a.773.773,0,0,1,.819-.007c.618.339,1.243.665,1.873.982a.448.448,0,0,0,.363.041c.072-.049.088-.236.07-.353-.1-.663-.212-1.326-.341-1.985a.893.893,0,0,1,.293-.93c.492-.44.957-.912,1.42-1.384a1.532,1.532,0,0,0,.2-.386,1.585,1.585,0,0,0-.379-.169q-1.011-.162-2.027-.291a.8.8,0,0,1-.687-.5c-.288-.63-.605-1.248-.924-1.864-.055-.106-.174-.245-.266-.247s-.216.134-.27.239c-.314.606-.629,1.212-.908,1.835a.861.861,0,0,1-.765.549c-.667.078-1.331.178-1.994.286a.537.537,0,0,0-.345.2c-.034.055.079.237.164.323.465.47.926.946,1.421,1.383A.953.953,0,0,1-467-68.76C-467.138-68.081-467.238-67.393-467.36-66.686Z" transform="translate(-62.358 -31.871)"/>
  </g>
</svg>
