<svg id="TA_logo" xmlns="http://www.w3.org/2000/svg" width="191.667" height="30.073" viewBox="0 0 191.667 30.073">
  <g id="Group_39" data-name="Group 39">
    <g id="Group_35" data-name="Group 35">
      <path id="Path_26" data-name="Path 26" d="M65.738,49.211a15.044,15.044,0,1,1-1.578-.082A15.042,15.042,0,0,1,65.738,49.211Zm.774,28.942a14.183,14.183,0,1,0-8.989-26.52c6.809,2.309,10.47,5.819,10.725,9.418a6.41,6.41,0,0,1-2.263,5.136l9.629-.674c.273-.019.357.3.029.393L52.678,72.49a14.171,14.171,0,0,0,13.834,5.663ZM60.195,64.493c1.259-4.733-.177-9.691-3.613-12.319a14.188,14.188,0,0,0-4.407,19.567C55.834,70.725,59.051,68.795,60.195,64.493Z" transform="translate(-49.13 -49.129)" fill="#fff"/>
      <path id="Path_27" data-name="Path 27" d="M80.844,64.524A14.183,14.183,0,0,1,55.371,75.2l22.964-6.584c.331-.093.245-.412-.029-.393l-9.629.674a6.41,6.41,0,0,0,2.263-5.136c-.254-3.6-3.915-7.107-10.725-9.418A14.178,14.178,0,0,1,80.844,64.524Zm-27.973,4.7a14.063,14.063,0,0,0,2,5.227c3.659-1.019,6.879-2.949,8.022-7.248,1.259-4.733-.177-9.691-3.613-12.319A14.184,14.184,0,0,0,52.871,69.221Z" transform="translate(-51.823 -51.836)" fill="#c80c0f"/>
    </g>
    <g id="Group_38" data-name="Group 38" transform="translate(38.261 8.974)">
      <g id="Group_36" data-name="Group 36">
        <path id="Path_28" data-name="Path 28" d="M475.037,99.1V94.153h-4.956V99.1H467.36V87.32h2.721v4.692h4.956V87.32h2.743V99.1Z" transform="translate(-405.346 -87.138)"/>
        <path id="Path_29" data-name="Path 29" d="M254.8,87.32v7.373a5.5,5.5,0,0,0,.357,2.093,3.57,3.57,0,0,0,1.014,1.405,4.153,4.153,0,0,0,1.582.8,7.841,7.841,0,0,0,2.071.257,7.605,7.605,0,0,0,2.052-.257,3.774,3.774,0,0,0,1.51-.8,3.636,3.636,0,0,0,.949-1.4,5.806,5.806,0,0,0,.338-2.1V87.32H262.13v7.294a2.725,2.725,0,0,1-.549,1.784,2.6,2.6,0,0,1-3.5,0,2.684,2.684,0,0,1-.559-1.784v-7.3Z" transform="translate(-243.749 -87.138)"/>
        <path id="Path_30" data-name="Path 30" d="M211.911,99.1V89.519h-3.2v-2.2h9.14v1.055a1.145,1.145,0,0,1-1.144,1.144h-2.074V99.1Z" transform="translate(-208.71 -87.138)"/>
        <rect id="Rectangle_86" data-name="Rectangle 86" width="2.721" height="11.777" transform="translate(46.936 0.182)"/>
        <path id="Path_31" data-name="Path 31" d="M358.049,93.589l.094.117,3.477,4.481a2.3,2.3,0,0,0,1.832.9h2.167l-4.98-6.335-.074-.093.072-.094,4.1-5.263H361.9l-3.755,5.076-.094.122V87.3H355.33V99.077h2.721V93.8Z" transform="translate(-320.176 -87.123)"/>
        <path id="Path_32" data-name="Path 32" d="M314.642,99.095a2.333,2.333,0,0,1-1.983-1.117l-2.117-3.5H309.2v4.613H306.48V87.32h4.85a4.077,4.077,0,0,1,2.9.966,3.432,3.432,0,0,1,1.019,2.6,3.532,3.532,0,0,1-.439,1.664,3.108,3.108,0,0,1-1.51,1.319l-.158.072,3.3,5.148h-1.8ZM309.2,92.71h1.587a1.546,1.546,0,0,0,1.719-1.645,1.727,1.727,0,0,0-.417-1.2,1.684,1.684,0,0,0-1.3-.468H309.2V92.71Z" transform="translate(-283.039 -87.138)"/>
        <path id="Path_33" data-name="Path 33" d="M425.14,98.018V95.76a7.716,7.716,0,0,0,3.136.8c1.328,0,2-.456,2-1.328,0-1.024-.9-1.139-2.714-1.916a3.458,3.458,0,0,1-2.4-3.376c0-2.295,1.75-3.376,4.177-3.376a8.855,8.855,0,0,1,3,.532v2.2a7.243,7.243,0,0,0-2.81-.626c-1.194,0-1.75.436-1.75,1.194,0,.8.674,1.043,1.887,1.5,1.558.777,3.369,1.12,3.369,3.776,0,2.295-1.827,3.548-4.273,3.548A9.142,9.142,0,0,1,425.14,98.018Z" transform="translate(-373.249 -86.56)"/>
      </g>
      <g id="Group_37" data-name="Group 37" transform="translate(78.646)">
        <path id="Path_34" data-name="Path 34" d="M775.75,99.087V87.31h7.375v1.069a1.134,1.134,0,0,1-1.132,1.132h-3.522v2.532h3.956v1.966h-3.956v2.882h4.654v2.2H775.75Z" transform="translate(-718.442 -87.13)"/>
        <path id="Path_35" data-name="Path 35" d="M663.53,99.087V87.31h1.323a1.4,1.4,0,0,1,1.4,1.4v8.257H670.6v2.122Z" transform="translate(-633.128 -87.13)"/>
        <rect id="Rectangle_87" data-name="Rectangle 87" width="2.721" height="11.77" transform="translate(13.556 0.187)"/>
        <path id="Path_36" data-name="Path 36" d="M623.191,99.092a2.333,2.333,0,0,1-1.983-1.117l-2.117-3.5h-1.343v4.613H615.03V87.32h4.85a4.077,4.077,0,0,1,2.9.966,3.432,3.432,0,0,1,1.019,2.6,3.532,3.532,0,0,1-.439,1.664,3.107,3.107,0,0,1-1.51,1.319l-.158.072,3.3,5.148Zm-5.443-6.385h1.587a1.546,1.546,0,0,0,1.719-1.645,1.727,1.727,0,0,0-.417-1.2,1.684,1.684,0,0,0-1.3-.468h-1.587v3.309Z" transform="translate(-596.257 -87.138)"/>
        <path id="Path_37" data-name="Path 37" d="M544.295,87.31H541.17l-4.44,11.777h1.961a1.147,1.147,0,0,0,1.093-.789l.456-1.381h4.776l.7,2.172h2.947ZM540.933,94.8,542,91.822c.237-.669.475-1.376.633-1.9h.041c.139.539.376,1.208.614,1.9l1.029,2.975Z" transform="translate(-536.73 -87.13)"/>
        <path id="Path_38" data-name="Path 38" d="M815.62,98.018V95.76a7.716,7.716,0,0,0,3.136.8c1.328,0,2-.456,2-1.328,0-1.024-.9-1.139-2.714-1.916a3.458,3.458,0,0,1-2.4-3.376c0-2.295,1.75-3.376,4.177-3.376a8.856,8.856,0,0,1,3,.532v2.2a7.244,7.244,0,0,0-2.81-.626c-1.194,0-1.75.436-1.75,1.194,0,.8.674,1.043,1.887,1.5,1.558.777,3.369,1.12,3.369,3.776,0,2.295-1.827,3.548-4.272,3.548A9.15,9.15,0,0,1,815.62,98.018Z" transform="translate(-748.753 -86.56)"/>
        <path id="Path_39" data-name="Path 39" d="M722.04,87.32h1.685a2.318,2.318,0,0,1,1.969,1.093l3.285,5.277a18.813,18.813,0,0,1,1.055,1.908h.06c-.038-.53-.06-1.266-.06-1.8V87.32h2.386V99.095h-2.983l-3.994-6.37c-.372-.585-.762-1.285-1.036-1.815h-.038c.019.511.057,1.115.057,1.683v6.5H722.04Z" transform="translate(-677.61 -87.138)"/>
        <rect id="Rectangle_88" data-name="Rectangle 88" width="2.721" height="11.77" transform="translate(39.218 0.187)"/>
      </g>
    </g>
  </g>
</svg>
