<svg id="Group_456" data-name="Group 456" xmlns="http://www.w3.org/2000/svg" width="36.049" height="33.781" viewBox="0 0 36.049 33.781">
  <path id="Path_1791" data-name="Path 1791" d="M-384.3-78.895c-1.072,0-2.1.011-3.132,0a3.052,3.052,0,0,1-2.937-1.808,3.556,3.556,0,0,1-.323-1.456q-.03-10.469-.01-20.937a3.106,3.106,0,0,1,3.266-3.246q14.712,0,29.425,0a3.182,3.182,0,0,1,3.35,3.365q0,10.363,0,20.726a3.183,3.183,0,0,1-3.357,3.358q-9.046,0-18.091,0a.781.781,0,0,0-.613.252q-2.8,2.821-5.621,5.627a1.164,1.164,0,0,1-1.09.435,1.067,1.067,0,0,1-.865-1.158c0-1.572,0-3.143,0-4.715C-384.3-78.587-384.3-78.715-384.3-78.895Zm11.62-19.116-.253-.3a4.516,4.516,0,0,0-5.519-1.133,5.15,5.15,0,0,0-2.393,6.27,8.086,8.086,0,0,0,2.332,3.3c1.625,1.472,3.306,2.882,4.967,4.314a1.127,1.127,0,0,0,1.716.006c.97-.814,1.946-1.622,2.909-2.445a22.355,22.355,0,0,0,3.378-3.327,5.5,5.5,0,0,0,.954-5.491,4.652,4.652,0,0,0-6.039-2.806A4.769,4.769,0,0,0-372.684-98.01Z" transform="translate(390.713 106.346)"/>
  <path id="Path_1792" data-name="Path 1792" d="M-301.529-35.65c-1.019-.863-2.046-1.681-3.012-2.565-.845-.773-1.652-1.594-2.42-2.443a3.621,3.621,0,0,1-.875-1.889,2.884,2.884,0,0,1,1.871-3.211,2.417,2.417,0,0,1,2.866,1.146,13.329,13.329,0,0,1,.633,1.289.99.99,0,0,0,.958.595.982.982,0,0,0,.921-.6c.07-.148.125-.3.187-.454a4.172,4.172,0,0,1,1.045-1.519,2.463,2.463,0,0,1,3.789.811,3.391,3.391,0,0,1-.494,3.811,20.87,20.87,0,0,1-3.328,3.223C-300.092-36.855-300.8-36.263-301.529-35.65Z" transform="translate(319.552 54.404)"/>
</svg>
